<?xml version="1.0" encoding="UTF-8" standalone="no"?>
<!DOCTYPE svg PUBLIC "-//W3C//DTD SVG 1.1//EN" "http://www.w3.org/Graphics/SVG/1.1/DTD/svg11.dtd">
<svg width="100%" height="100%" viewBox="0 0 2284 367" version="1.1" xmlns="http://www.w3.org/2000/svg" xmlns:xlink="http://www.w3.org/1999/xlink" xml:space="preserve" xmlns:serif="http://www.serif.com/" style="fill-rule:evenodd;clip-rule:evenodd;stroke-linejoin:round;stroke-miterlimit:2;">
    <g id="アートボード1" transform="matrix(1,0,0,1,-205.647,-506.023)">
        <rect x="205.647" y="506.023" width="2283.33" height="366.975" style="fill:none;"/>
        <clipPath id="_clip1">
            <rect x="205.647" y="506.023" width="2283.33" height="366.975"/>
        </clipPath>
        <g clip-path="url(#_clip1)">
            <g id="レイヤー-1" serif:id="レイヤー 1" transform="matrix(4.16667,0,0,4.16667,0.647475,0.0229167)">
                <g transform="matrix(1,0,0,1,-72.6446,-100.021)">
                    <g transform="matrix(1,0,0,1,122,306)">
                        <path d="M0,-81L12,-81L12,-11L40,-11L40,0L0,0L0,-81Z" style="fill:rgb(231,244,250);fill-rule:nonzero;"/>
                    </g>
                    <g transform="matrix(1,0,0,1,211.207,280.722)">
                        <path d="M0,-33.638L-13.867,-4.722L14.012,-4.722L0,-33.638ZM0.03,-58.916L40.95,25.278L28.544,25.278L18.492,4.278L-18.288,4.278L-28.233,25.278L-40.548,25.278L0.03,-58.916Z" style="fill:rgb(231,244,250);fill-rule:nonzero;"/>
                    </g>
                    <g transform="matrix(1,0,0,1,262,309.541)">
                        <path d="M0,-88.074L64,-26.454L64,-84.541L76,-84.541L76,0L12,-61.347L12,-3.541L0,-3.541L0,-88.074Z" style="fill:rgb(231,244,250);fill-rule:nonzero;"/>
                    </g>
                    <g transform="matrix(1,0,0,1,368,295)">
                        <path d="M0,-59L0,0L0.616,0C9.419,0 16.038,-0.451 20.483,-1.194C24.932,-1.937 29.147,-3.601 33.136,-6.1C37.127,-8.605 40.302,-11.945 42.665,-16.081C45.018,-20.219 46.199,-24.779 46.199,-29.739C46.199,-35.977 44.317,-41.625 40.554,-46.674C36.786,-51.722 32.284,-54.885 27.047,-56.623C21.808,-58.365 14.771,-59 5.925,-59L0,-59ZM-12,-70L9.121,-70C25.766,-70 38.151,-66.028 46.266,-57.798C54.381,-49.567 58.444,-40.244 58.444,-29.677C58.444,-19.028 54.248,-9.543 45.858,-1.354C37.464,6.836 25.268,11 9.26,11L-12,11L-12,-70Z" style="fill:rgb(231,244,250);fill-rule:nonzero;"/>
                    </g>
                    <g transform="matrix(1,0,0,1,439,306)">
                        <path d="M0,-81L48,-81L48,-70L12,-70L12,-50L48,-50L48,-39L12,-39L12,0L0,0L0,-81Z" style="fill:rgb(231,244,250);fill-rule:nonzero;"/>
                    </g>
                    <g transform="matrix(1,0,0,1,527.44,280.722)">
                        <path d="M0,-33.638L-13.865,-4.722L14.012,-4.722L0,-33.638ZM0.03,-58.916L40.95,25.278L28.544,25.278L18.486,4.278L-18.294,4.278L-28.232,25.278L-40.548,25.278L0.03,-58.916Z" style="fill:rgb(242,216,47);fill-rule:nonzero;"/>
                    </g>
                    <g transform="matrix(1,0,0,1,578,306)">
                        <path d="M0,-81L12,-81L12,-11L40,-11L40,0L0,0L0,-81Z" style="fill:rgb(231,244,250);fill-rule:nonzero;"/>
                    </g>
                    <g transform="matrix(1,0,0,1,630,306)">
                        <path d="M0,-81L12,-81L12,-11L40,-11L40,0L0,0L0,-81Z" style="fill:rgb(231,244,250);fill-rule:nonzero;"/>
                    </g>
                </g>
            </g>
        </g>
    </g>
</svg>
