<svg xmlns="http://www.w3.org/2000/svg" viewBox="0 0 2284 367"  fill-rule="evenodd" stroke-linejoin="round" stroke-miterlimit="2" xmlns:v="https://vecta.io/nano"><g transform="translate(-205.647 -506.023)"><clipPath id="A"><path d="M205.647 506.023h2283.33v366.975H205.647z"/></clipPath><g clip-path="url(#A)"><g transform="matrix(4.16667 0 0 4.16667 -302.040267 -416.731583)"><g fill="#e7f4fa" fill-rule="nonzero"><path d="M122 225h12v70h28v11h-40v-81zm89.207 22.084L197.34 276h27.879l-14.012-28.916zm.03-25.278L252.157 306h-12.406l-10.052-21h-36.78l-9.945 21h-12.315l40.578-84.194zm50.763-.339l64 61.62V225h12v84.541l-64-61.347V306h-12v-84.533zM368 236v59h.616c8.803 0 15.422-.451 19.867-1.194s8.664-2.407 12.653-4.906c3.991-2.505 7.166-5.845 9.529-9.981 2.353-4.138 3.534-8.698 3.534-13.658 0-6.238-1.882-11.886-5.645-16.935s-8.27-8.211-13.507-9.949S382.771 236 373.925 236H368zm-12-11h21.121c16.645 0 29.03 3.972 37.145 12.202s12.178 17.554 12.178 28.121c0 10.649-4.196 20.134-12.586 28.323S393.268 306 377.26 306H356v-81zm83 0h48v11h-36v20h36v11h-36v39h-12v-81z"/></g><path d="M527.44 247.084L513.575 276h27.877l-14.012-28.916zm.03-25.278L568.39 306h-12.406l-10.058-21h-36.78l-9.938 21h-12.316l40.578-84.194z" fill="#f2d82f" fill-rule="nonzero"/><g fill="#e7f4fa"><path d="M578 225h12v70h28v11h-40v-81zm52 0h12v70h28v11h-40v-81z" fill-rule="nonzero"/></g></g></g></g></svg>
